<svg version="1.0" xmlns="http://www.w3.org/2000/svg" width="101.67" height="83.98" viewBox="42.19 0 101.67 83.98">
  <path fill="#23A9E1" d="M42.19 0l50.58 59.05L143.85 0z"/>
  <path fill="#491213" d="M93.1 0H42.2v22.46l50.58 61.52.33-.42 50.75-60.4V0H93.1zm0 57.05l-.33.41L45.89 1.78h94.42l-47.2 55.27z"/>
  <path fill="#491213" d="M92.77 57.46l.33-.41 27.58-32.29c-6.91.95-11.86 6.08-18.6 4.96-3.4-.56-3.5-2.52-4.47-4.46-.75-1.49-1.94-1.3-3.49-1.9-1.44-.57-2.28-1.74-5.16-1.07-2.53.6-2.81 4.52-5.95 4.3-1.7-.13-1.82-2.5-4.25-5.54-6.3-7.57-12.16-6.53-16.24.47l30.25 35.94z"/>
  <path fill="#FFF" d="M65.46 32.25c.52.62.9 1.28.81 2.11-.06.58-.94 1.55-.27 1.85l2.24-2.83c-.6-.15-5.36-5.85-5.44-6.48l-3.16 1.74c.16.66 1.3 0 1.85.04.83.06 1.43.56 1.96 1.15-1.73 1.45-5.93 5.02-6.38 5.1-.22.03-1.09-.6-1.1-.06 0 .26.85 1.01 1.02 1.2.74.9 1.48 1.78 2.23 2.66.61-.28-.11-.73.2-1.24.23-.38 4.9-4.27 6.04-5.24zM60.2 25.27c.43-.1.61.43.95-.06L58.7 22.3c-.37-.44-.84-.91-.7.02.08.63-6.12 5.67-6.5 5.82-.48.2-.76-.41-1.1.1.72.87 1.45 1.74 2.19 2.6.24.3.47.62.74.9.34.33.21-.68.23-.6-.1-.5.52-.94.85-1.22 1.55-1.36 5.4-4.6 5.78-4.64zM51.42 24.35c-1.77.52-3.65-.16-4.2-2.04-.55-1.83.6-3.76 2.06-4.8 1.44-1.03 3.6-.97 4.38.84.34.8.15 1.7-.1 2.5-.16.5-.6 1 .06 1.29l2.58-3.29c-1.06-.63-1.52-1.68-2.3-2.6-.88-1.06-2.06-2.07-3.48-2.28-2.87-.4-5.58 2.56-5.8 5.25a5.75 5.75 0 001.25 4c.75 1 1.87 1.62 2.44 2.75.26.1 2.7-1.03 3.28-1.25-.05-.11-.09-.28-.17-.37-.76.23 0 0 0 0zM90.72 60.76c-1.15-.77-4.02-4.69-4.57-5.34l-.33-.4c-.01-.01-.28.23-.25.2-.17.14.14.57-.05.86-.8 1.24-5.76 4.98-6.02 5.16-.55.39-1.16-.16-1.48.32.72.85 2.77 3.54 3.02 3.58.48.08.14-.82.2-1 .13-.37 2.64-2.45 3.56-3.21.33-.28.68.42.88.72.33.48.48 1 .3 1.57-.11.37-.71.92-.25 1.17l2.62-3.05c.25-.29-.57-.03-.47-.08-.37.19-.72.23-1.07-.03-.1-.07-1.08-1.08-.99-1.17.44-.36.96-.96 1.52-1.1.86-.21 1.58 1.52 1.71 2.13.12.58.1 1.19-.07 1.75-.13.39-.5.7.01.93l2.14-2.92a.66.66 0 01-.4-.1c-.14-.08.13.08 0 0zM80.5 56.63a5.35 5.35 0 00.77-7.34 5.38 5.38 0 00-7.8-1.05 5.31 5.31 0 00-.77 7.32c2 2.62 5.2 2.92 7.8 1.07 1.15-.98-.1.07 0 0zm-.47-4.75a7.44 7.44 0 01-3.73 3.66c-1.82.72-3.1-.82-2.36-2.55a7.45 7.45 0 013.74-3.67c1.85-.73 3.06.85 2.35 2.56-.38.88.07-.17 0 0zM74.05 42.02c.48.06.93.55 1.27.04l-2.23-2.63c-.6.27.05.55-.2.97-.23.42-2.55.78-3.17.89.23-.65.9-2.62 1.16-2.84.54-.44.88.44 1.28-.14l-2.74-3.25c-.31-.37-.56-1.03-.98-.68.04-.03 0 1.47-.09 1.73-.08.24-.93 3.64-1.92 4.47-.5.42-2.24 1.94-2.7 2.1-.55.19-.83-.6-1.23-.04L65 45.6c.12.15.6.86.76.9.52.09.06-.9.11-1.1.15-.42 2.5-2.71 3.5-2.85 1.46-.21 3.2-.7 4.68-.53.34.04-.35-.04 0 0zM111.4 52.45a5 5 0 01.2 2c-.1.88-.97 2.93-2.17 2.35-1.17-.58-2.2-1.73-3.19-2.55.8-.94 1.51-1.75 2.86-1.3.37.12.69-.03.3-.26-.4-.24-3.12-1.97-3.26-1.8-.27.31.52.87.22 1.47-.23.45-.61.84-.93 1.22-.73-.6-1.93-1.25-1.06-2.25a3.68 3.68 0 012.1-1.35c.56-.1 1.84.4 2-.22l-3.26-1.57c.18.8-3.35 4.53-4.13 5.47-.1.14-.65.6-.66.8-.01.42.62.1.65.08.5-.18 6.82 5.1 6.98 5.47.1.28-.22.57-.03.73-.01 0 .23.22.25.19.4-.47 4.53-5.98 5.38-6.22-.8-1.22-1.6-2.43-2.37-3.65-.59.26-.02.95.11 1.39zM105.23 59.15c-2.08-1.34-5.6 1.28-6.13 1.53-1.03.5-1.78-.54-1.25-1.5.47-.83 1.4-1.23 2.32-1.29.27-.02 1.35.2 1.45.03.13-.2.23-.23.04-.35l-2.56-1.73c-.18 1.05-1.39 1.73-2.08 2.44-.82.85-1.52 1.93-1.52 3.15 0 1.14.68 2.14 1.68 2.66 1.14.6 2.32.12 3.32-.5.63-.4 1.26-.87 1.93-1.18 1-.47 2.3-.06 1.95 1.27a3.6 3.6 0 01-2.4 2.34 3.3 3.3 0 01-1.88-.09c-.43-.14-.99-.73-1.22-.11l3.48 2.54c.1-.76.52-1.1 1.08-1.57a11.7 11.7 0 002-2.12c1.15-1.7 1.53-4.07-.21-5.52zM105.23 59.15c.92.6-.6-.5 0 0zM134.46 21.84zM141.92 19.63c-.73.73-8.42-2.34-8.98-2.77-.3-.11-.3-1.32-.7-.83l-1.22 1.46-1.26 1.52c-.26.31-.53.46-.04.72.84-.42 5.42 7.34 5.01 8.46-.72.37-6.91-5.06-7.08-5.42-.05-.14.27-1.02-.21-.94-.23.04-.74.9-.89 1.07l-.89 1.07c.33.49.52-.02.96.05.38.07 1.84 1.33 2.24 1.66-.73.03-2.69.13-2.93.11-.9.11-.43-.66-1.02-.93l-2.28 2.77-1.32 1.6c-.06.07-.05.03.05.11.33.28.1.17.57 0 .5-.17 6.56 4.94 6.77 5.2.38.45-.15.97.41 1.22l1.8-2.18c.1-.11.14-.1.02-.2-.43-.36-.48.2-1 .15-.54-.09-4.4-3.37-5.9-4.6 1.82-.08 7.3-.28 8.2-.31.3-.01 1.14.9 1.07 1.21-.08.38-.47.56.05.8.48-.58.99-1.15 1.46-1.74l.23-.28a.74.74 0 00.2-.26l.17-.21c.43-.49 1.8-2.01 1.64-2.15-.46-.4-.69.46-1.3-.06-.35-.25-1.22-1.79-1.44-2.16-.27-.45.6-.9.96-1.12.78-.48 3.25-1.18 3.48.35.04.26-.27.55-.08.7.04.04.2.25.27.17l3.3-3.97c-.1-.08-.2-.23-.32-.27zm-7.37 2.15c.07-.05.15-.1 0 0l-.09.06.08-.05c-.34.22-.66.47-.96.76l-1.56-2.7 3.53 1.49c-.36.1-.7.25-1 .44zM124.8 33c-2.38-1.98-5.63-1.4-7.59.83a5.39 5.39 0 00.6 7.61 5.36 5.36 0 007.58-.84 5.33 5.33 0 00-.59-7.6zm-.28 6.6l-.03.03c-1.23 1.3-3.35.1-4.5-.73-1.15-.82-3.11-2.56-1.86-4.1 1.06-1.29 3.13-.23 4.2.48 1.2.8 3.4 2.6 2.27 4.22l-.08.1zM124.8 33c1.17.95-.25-.22 0 0z"/>
  <path fill="#FFF" d="M124.5 39.64l.02-.03.08-.1-.1.13zM118.2 42.12c.12.1.28.22-.05-.06-2.84-2.13-6.2-1.5-8.4 1.16l-2.97 3.56c.36.52.77-.11 1.28.18.43.25 6.24 5.1 6.33 5.37.17.45-.25.54.15.87.17.14 4.54-5.24 4.94-6.19a4.34 4.34 0 00-1.27-4.9zm-1.3 6.75c-.25.3-.05.06-.67.65-.31.3-6.44-4.67-6.2-4.94.84-.92 2.57-1.56 3.58-1.3 2.19.56 5.21 3.26 3.28 5.6z"/>
  <path fill="#491213" d="M92.77 57.48l.33-.41 27.58-32.29c-6.91.95-11.86 6.08-18.6 4.96-3.4-.57-3.5-2.52-4.47-4.46-.75-1.5-1.94-1.3-3.49-1.91-1.44-.56-2.28-1.74-5.16-1.06-2.53.6-2.81 4.52-5.95 4.3-1.7-.13-1.82-2.5-4.25-5.55-6.3-7.57-12.16-6.52-16.25.48l30.26 35.94z"/>
  <g>
    <path fill="#23A9E1" d="M88.75 70.92l4.02-6.5 4 6.5-4 6.51z"/>
  </g>
  <g>
    <path fill="#FFF" d="M65.46 32.27c.52.61.9 1.28.81 2.11-.06.58-.94 1.55-.27 1.85l2.24-2.84c-.6-.15-5.36-5.84-5.44-6.47l-3.16 1.73c.17.67 1.3.01 1.86.05.82.06 1.42.56 1.95 1.15-1.73 1.45-5.93 5.02-6.38 5.1-.22.03-1.08-.6-1.1-.06 0 .26.86 1.01 1.02 1.2.74.9 1.48 1.78 2.23 2.66.62-.28-.11-.73.2-1.24.23-.38 4.9-4.27 6.04-5.24zM60.2 25.29c.43-.1.61.43.95-.06L58.7 22.3c-.37-.44-.84-.91-.7.02.08.63-6.12 5.66-6.5 5.82-.48.2-.76-.42-1.1.1.72.87 1.45 1.74 2.19 2.6.24.3.47.62.74.89.34.34.21-.67.23-.59-.1-.51.52-.95.85-1.23 1.55-1.36 5.4-4.58 5.78-4.64zM51.42 24.37c-1.77.52-3.65-.17-4.2-2.04-.55-1.84.6-3.76 2.06-4.8 1.44-1.04 3.6-.98 4.38.83.34.8.15 1.7-.1 2.5-.16.51-.6 1 .06 1.3l2.58-3.3c-1.06-.63-1.52-1.68-2.3-2.59-.88-1.07-2.06-2.08-3.48-2.28-2.87-.4-5.58 2.56-5.8 5.24a5.75 5.75 0 001.25 4c.75 1 1.87 1.63 2.43 2.76.27.1 2.7-1.03 3.29-1.26-.05-.1-.09-.27-.17-.36-.76.22 0 0 0 0zM90.72 60.78c-1.15-.77-4.03-4.7-4.57-5.34l-.33-.4c-.01-.01-.28.23-.25.2-.17.14.14.57-.05.86-.8 1.24-5.76 4.98-6.02 5.16-.55.38-1.16-.16-1.49.32.72.85 2.78 3.54 3.02 3.58.48.08.15-.82.22-1 .12-.37 2.63-2.45 3.54-3.21.34-.28.7.42.9.72.32.48.47 1 .3 1.57-.13.37-.73.92-.26 1.17l2.61-3.05c.26-.29-.56-.03-.47-.08-.37.19-.71.23-1.06-.03-.1-.07-1.09-1.08-.99-1.17.43-.36.96-.96 1.52-1.1.86-.21 1.58 1.52 1.7 2.13.13.58.11 1.19-.07 1.75-.12.39-.48.7.02.93l2.13-2.92a.7.7 0 01-.4-.1c-.13-.08.14.08 0 0zM80.5 56.65a5.34 5.34 0 00.76-7.34 5.38 5.38 0 00-7.8-1.06 5.31 5.31 0 00-.76 7.33c2 2.62 5.2 2.92 7.8 1.07 1.15-.98-.1.07 0 0zm-.47-4.76a7.45 7.45 0 01-3.73 3.67c-1.82.71-3.1-.83-2.36-2.55a7.45 7.45 0 013.74-3.67c1.85-.73 3.06.85 2.35 2.55-.38.9.07-.17 0 0zM74.05 42.04c.48.06.93.55 1.27.04l-2.23-2.64c-.6.27.05.55-.2.97-.23.43-2.55.78-3.17.9.23-.65.9-2.62 1.16-2.84.54-.45.88.43 1.28-.14l-2.74-3.26c-.31-.36-.56-1.02-.98-.68a8.4 8.4 0 01-.09 1.74c-.08.23-.93 3.63-1.92 4.47-.5.41-2.24 1.93-2.7 2.1-.55.18-.83-.6-1.23-.04L65 45.6c.12.15.6.87.76.9.52.09.06-.9.11-1.09.15-.43 2.5-2.72 3.5-2.86 1.46-.2 3.2-.7 4.68-.52.34.04-.35-.05 0 0z"/>
  </g>
  <g>
    <path fill="#DC6243" d="M67.8 22.87c-4.05-.16-2.36-3.95.39-4.8 2.6-.82 8.09 1.71 9.84 3.4-2.78.85-6.39.73-9.45.87-.22-3.12-.95-2.03-.79.53z"/>
  </g>
  <g>
    <path fill="#DC6243" d="M68.8 27.72c-2.03-1.57-1.39-5.26 1.77-4.14 4 2.08-.86 3.24-1.76 4.14 0 0 .04-.04 0 0z"/>
  </g>
  <g>
    <path fill="#DC6243" d="M77.3 35.42c-8.62-.07-2.8-13.32.14-12.52 3.37 1.08 3 12.62-.14 12.52z"/>
  </g>
  <g>
    <path fill="#DC6243" d="M83.4 31.1c-.84 2.5-2.36 2.96-2.19-.08.2-3.5 2.48-2.66 4.93-4 2.04-1.12 3.14-5.21 6.64-2.76 1.56 1.09 3.35.17 3.85 1.83-.02-.09-4.54 10.3-2.03 10.3-4.96 0-2.77-5.92-.87-9.9-1.85.9-4.84 6.7-2.38 7.65-1.29 1.69-5.2 3.94-7.24 2.3-1.55-1.25-.7-3.33-.7-5.35z"/>
  </g>
  <g>
    <path fill="#DC6243" d="M87.5 40.7c-3.48 1.04-8.12-1.21-2.5-2.34 3.48-.7 7.18.77 2.5 2.34.15-.05-.12.04 0 0z"/>
  </g>
  <g>
    <path fill="#DC6243" d="M91.88 40.56c-.74-1.66.56-3.64 2.68-2.2 1.84 1.25-.86 3.1-2.69 2.2z"/>
  </g>
  <g>
    <path fill="#DC6243" d="M88.93 45.22c-2.41-.74-10.54-.56-5.22-2.76 1.64-.68 10.16.1 5.22 2.76z"/>
  </g>
  <g>
    <path fill="#DC6243" d="M92.14 44.87c0-.96-.5-2.68 1.36-1.94 2.23.87-1.36 2.65-1.36 1.94 0 0 0-.17 0 0z"/>
  </g>
  <g>
    <path fill="#DC6243" d="M99.36 48.54c-1.43-1.23-2.89-1.3-4.23 0-1.8-3.3-8.31-2.2-11.36-2.65 1.64 4.03 14.86 4.78 15.6 2.65z"/>
  </g>
  <g>
    <path fill="#DC6243" d="M97.46 50.96c-3.15-.14-6.67-.56-9.65.09 1.86.46 6.4 1.8 2.18 2.91 1.51 2.17 3.97 2.03 5.58.13-.65-.32-1.01-.72-1.55-1.06 1.67-.3 3.23-1.26 3.44-2.07z"/>
  </g>
  <g>
    <path fill="#DC6243" d="M101.06 47.09c-5.3-3.12-3.95-5.43.35-7.6 2.25-1.12 7.32-5.2 9.45-3.84l-9.8 11.44z"/>
  </g>
  <g>
    <path fill="#F49774" d="M97.3 39.8c-4.49-4.6 6.68-4.17 8.48-5.79 1.3.44 10.77-8.28 13.07-7.74-1.66 1.94-5.22 8.14-7.78 8.14-1.96 0-3.95-.3-5.47 1.1-2.22 2.05-5.9 3.1-8.3 4.3z"/>
  </g>
  <g>
    <path fill="#F4B1A4" d="M98.76 34.18c-2.46 1.32-4.77-3.9-.54-3.4 2.81.34 5.66-.23 8.35.23a8.66 8.66 0 01-7.81 3.17z"/>
  </g>
  <g>
    <path fill="#FFF" d="M111.39 52.47c.2.64.3 1.33.21 2-.1.88-.97 2.93-2.17 2.35-1.17-.58-2.2-1.73-3.19-2.56.8-.93 1.51-1.75 2.86-1.3.37.13.69-.03.3-.25-.4-.24-3.12-1.97-3.26-1.8-.27.3.52.86.22 1.47-.23.45-.61.83-.93 1.22-.72-.6-1.93-1.25-1.06-2.26a3.69 3.69 0 012.1-1.34c.56-.11 1.84.39 2-.22l-3.26-1.57c.18.8-3.34 4.53-4.13 5.46-.11.14-.65.61-.66.8-.01.43.62.1.66.09.48-.18 6.81 5.1 6.97 5.47.1.28-.22.57-.03.73-.01-.01.23.22.25.18.4-.46 4.53-5.97 5.38-6.21-.8-1.22-1.6-2.43-2.37-3.65-.6.25-.02.94.11 1.39zM105.23 59.17c-2.08-1.34-5.6 1.28-6.13 1.53-1.03.5-1.78-.54-1.25-1.5.47-.83 1.4-1.24 2.31-1.3.28 0 1.35.2 1.46.03.13-.2.23-.22.04-.34l-2.56-1.74c-.18 1.06-1.39 1.73-2.08 2.44-.82.86-1.52 1.94-1.52 3.16 0 1.14.68 2.14 1.68 2.66 1.13.6 2.32.12 3.32-.51.63-.4 1.26-.86 1.93-1.17 1-.47 2.3-.06 1.95 1.27a3.6 3.6 0 01-2.4 2.34 3.3 3.3 0 01-1.88-.1c-.43-.13-.99-.73-1.23-.1l3.49 2.53c.1-.76.52-1.09 1.08-1.56a11.7 11.7 0 002-2.13c1.15-1.69 1.53-4.06-.21-5.51zM105.23 59.17c.92.6-.6-.5 0 0zM134.46 21.86zM141.92 19.64c-.73.73-8.42-2.34-8.98-2.76-.3-.11-.3-1.32-.7-.83l-1.22 1.46-1.26 1.51c-.26.32-.54.46-.04.72.84-.41 5.42 7.35 5.01 8.47-.72.37-6.91-5.06-7.08-5.42-.05-.15.27-1.02-.21-.94-.23.03-.74.9-.89 1.07l-.89 1.07c.33.48.52-.02.96.04.38.08 1.84 1.33 2.24 1.66-.73.03-2.69.14-2.93.12-.9.11-.43-.66-1.02-.93l-2.28 2.76-1.32 1.6c-.06.07-.05.04.05.12.33.27.1.17.57 0 .5-.17 6.55 4.94 6.77 5.2.38.45-.15.97.41 1.22l1.8-2.19c.1-.1.14-.1.02-.2-.43-.35-.47.22-1 .16-.53-.09-4.4-3.37-5.9-4.61l8.2-.3c.3-.02 1.14.9 1.07 1.21-.08.38-.46.56.05.8.48-.58.99-1.15 1.46-1.74l.23-.28a.74.74 0 00.2-.27l.18-.2c.42-.5 1.8-2.01 1.63-2.16-.46-.4-.68.47-1.3-.05-.34-.25-1.22-1.79-1.44-2.16-.26-.45.6-.9.96-1.12.78-.48 3.25-1.18 3.49.35.04.25-.27.55-.09.7.05.04.2.24.27.16l3.3-3.97c-.1-.08-.2-.22-.32-.27zm-7.37 2.16c.07-.05.15-.1 0 0l-.09.05c.02 0 .05-.03.08-.05-.34.22-.66.48-.95.76l-1.57-2.69 3.53 1.48c-.36.1-.7.25-1 .45zM124.8 33.01c-2.37-1.98-5.63-1.4-7.58.83a5.39 5.39 0 00.6 7.62 5.37 5.37 0 007.57-.85 5.33 5.33 0 00-.59-7.6zm-.28 6.62l-.03.02c-1.23 1.3-3.35.1-4.5-.73s-3.11-2.57-1.86-4.1c1.06-1.29 3.13-.23 4.2.48 1.2.8 3.4 2.6 2.27 4.22l-.08.1z"/>
    <path fill="#FFF" d="M124.8 33.01c1.17.96-.25-.2 0 0zM124.5 39.65l.02-.02.08-.11-.1.13zM118.2 42.14c.12.09.28.22-.05-.06-2.84-2.13-6.2-1.5-8.4 1.16l-2.97 3.56c.36.52.77-.11 1.28.18.43.25 6.24 5.1 6.34 5.37.16.45-.26.54.14.87.17.14 4.54-5.24 4.93-6.2a4.34 4.34 0 00-1.26-4.88zm-1.3 6.75c-.25.3-.05.05-.67.65-.31.3-6.44-4.67-6.2-4.94.84-.92 2.57-1.56 3.58-1.3 2.2.56 5.21 3.26 3.28 5.59z"/>
  </g>
</svg>
