<?xml version="1.0" encoding="UTF-8"?><!DOCTYPE svg PUBLIC "-//W3C//DTD SVG 1.1//EN" "http://www.w3.org/Graphics/SVG/1.1/DTD/svg11.dtd"><svg xmlns="http://www.w3.org/2000/svg" xmlns:xlink="http://www.w3.org/1999/xlink"><symbol id="icon-burger">
  <g fill="#81B3D2">
    <path d="M71.91 46.04H4.25A4.26 4.26 0 000 50.3v3.46A4.27 4.27 0 004.25 58h.96v1.04a9.95 9.95 0 009.92 9.92h45.9a9.95 9.95 0 009.93-9.92V58h.95a4.26 4.26 0 004.26-4.25v-3.46a4.26 4.26 0 00-4.26-4.25zm-3.95 13c0 3.81-3.1 6.92-6.92 6.92H15.13a6.93 6.93 0 01-6.92-6.92V58h59.75v1.04zm5.2-5.3c0 .69-.57 1.26-1.25 1.26H4.25C3.57 55 3 54.43 3 53.75v-3.46c0-.68.57-1.25 1.25-1.25h67.66c.68 0 1.26.57 1.26 1.25v3.46zM16.16 37.86l5.48 4 5.47-4 5.48 4 5.48-4 5.48 4 5.48-4 5.48 4 5.48-4 5.48 4 6.37-4.65-1.77-2.42-4.6 3.35-5.48-4-5.48 4-5.48-4-5.48 4-5.48-4-5.48 4-5.48-4-5.47 4-5.48-4-5.47 4-4.6-3.35-1.77 2.42 6.37 4.65zM70.89 31.1c.04-.62.05-2.62.04-3C70.24 12.47 55.8 0 38.08 0S5.92 12.48 5.24 28.1c-.02.38 0 2.38.04 3h65.6zM38.09 3C54.1 3 67.22 14.15 67.91 28.1H8.24C8.94 14.14 22.05 3 38.08 3z"/>
    <circle cx="38.08" cy="15.04" r="2"/>
    <circle cx="30.08" cy="10.08" r="2"/>
    <circle cx="46.08" cy="10.08" r="2"/>
  </g>
</symbol><symbol id="icon-burgeror" viewBox="0 0 76.166 68.959">
  <g>
    <path fill="#81B3D2" d="M71.914,46.042H4.252C1.914,46.042,0,47.955,0,50.294v3.454C0,56.086,1.914,58,4.252,58h0.956v1.037 c0,5.457,4.464,9.922,9.921,9.922h45.908c5.456,0,9.921-4.465,9.921-9.922V58h0.956c2.339,0,4.252-1.914,4.252-4.252v-3.454 C76.166,47.955,74.253,46.042,71.914,46.042z M67.958,59.037c0,3.815-3.104,6.922-6.921,6.922H15.129 c-3.816,0-6.921-3.104-6.921-6.922V58h59.75V59.037z M73.166,53.748c0,0.679-0.573,1.252-1.252,1.252H4.252 C3.573,55,3,54.427,3,53.748v-3.454c0-0.679,0.573-1.252,1.252-1.252h67.662c0.679,0,1.252,0.573,1.252,1.252V53.748z"/>
    <polygon fill="#81B3D2" points="16.162,37.856 21.635,41.856 27.112,37.856 32.591,41.856 38.069,37.856 43.548,41.856 49.026,37.856 54.505,41.856 59.985,37.856 65.474,41.856 71.842,37.212 70.074,34.788 65.474,38.144 59.985,34.144 54.505,38.144 49.026,34.143 43.548,38.144 38.069,34.143 32.591,38.144 27.112,34.143 21.636,38.144 16.163,34.142 10.686,38.144 6.093,34.789 4.323,37.211 10.686,41.856 	"/>
    <path fill="#81B3D2" d="M70.888,31.094c0.041-0.61,0.055-2.616,0.037-3C70.242,12.476,55.804,0,38.083,0C20.363,0,5.924,12.476,5.241,28.094 c-0.017,0.384-0.004,2.389,0.039,3H70.888z M38.083,3c16.031,0,29.15,11.154,29.842,25.094H8.241C8.933,14.154,22.051,3,38.083,3z"/>
    <circle fill="#81B3D2" cx="38.083" cy="15.042" r="2"/>
    <circle fill="#81B3D2" cx="30.083" cy="10.083" r="2"/>
    <circle fill="#81B3D2" cx="46.083" cy="10.083" r="2"/>
  </g>
</symbol><symbol id="icon-cross" viewBox="0 0 22.199 22.199">
  <polygon points="22.199,2.804 19.396,0 11.1,8.297 2.804,0 0,2.803 8.297,11.1 0,19.396 2.803,22.199 11.1,13.902 19.396,22.199 22.199,19.396 13.903,11.1 "/>
</symbol><symbol id="icon-facebook" viewBox="0 0 8.672 18.944">
  <path d="M6.275,3.356c0.799,0,1.599,0,2.398,0c0-1.119,0-2.237,0-3.356c-0.959,0-1.92,0-2.878,0C2.656,0.181,1.54,2.387,1.948,6.114 H0v3.518h1.959c0,3.104,0,6.208,0,9.312c1.279,0,2.559,0,3.837,0c0-3.104,0-6.208,0-9.312h2.857V6.114H5.787 C5.765,5.069,5.75,3.709,6.275,3.356z"/>
</symbol><symbol id="icon-facebook1">
  <path d="M6.275 3.356h2.398V0H5.795C2.656.181 1.54 2.387 1.948 6.114H0v3.518h1.959v9.312h3.837V9.632h2.857V6.114H5.787c-.022-1.045-.037-2.405.488-2.758z"/>
</symbol><symbol id="icon-gift">
  <path fill="#81B3D2" d="M60.16 22.23H35.77c13.6-6.82 14.69-11.12 14.19-13.52-1.15-3.92-5.6-6.94-9.85-5.34-5.49 2.06-7.03 10.26-8.52 16.19-1.89-6-3.72-13.65-8-17.53a7.19 7.19 0 00-5.68-2c-3.97.35-9.65 5.32-7.35 10.85 2.22 5.31 9.54 8.67 14.36 11.35H2.83A2.84 2.84 0 000 25.07v11.18a2.84 2.84 0 002.83 2.83h.27v36h56.96v-36h.1A2.84 2.84 0 0063 36.25V25.07a2.85 2.85 0 00-2.84-2.84zM41.77 5.87c2.08-.3 4.91 1.29 5.18 3.17.39 2.73-3.35 5.2-5 6.35-2.49 1.72-4.86 2.6-7.18 4 .87-3.64 2.5-12.85 7-13.52zm-22.53 9.85c-2.19-1.47-6.44-4.38-6.34-7.68.11-3.55 5.66-6.49 8.68-3.84 3.8 3.33 5.63 10.98 7.01 16.36-3.2-1.52-6.23-2.75-9.35-4.84zm5.88 56.43H6.04V39.08h19.07v33.07zm0-36.07H3V25.23h22.11v10.85zm10 36.07h-7.06V25.23h7.07v46.92zm22.02 0H38.05V39.08h19.07v33.07zM60 36.08H38.05V25.23H60v10.85z"/>
</symbol><symbol id="icon-giftor" viewBox="0 0 63 75.084">
  <path fill="#81B3D2" d="M60.165,22.23h-0.103H35.758c13.604-6.815,14.688-11.115,14.188-13.52c-1.145-3.916-5.604-6.938-9.848-5.341 c-5.484,2.063-7.029,10.262-8.514,16.19C29.69,13.561,27.858,5.91,23.573,2.034c-1.242-1.125-3.049-2.237-5.676-2.003 c-3.965,0.352-9.652,5.317-7.344,10.849c2.217,5.313,9.539,8.67,14.354,11.35H2.834C1.275,22.23,0,23.506,0,25.065V36.25 c0,1.559,1.275,2.834,2.835,2.834h0.27v35.999h56.958V39.084h0.104c1.561,0,2.835-1.275,2.835-2.834V25.065 C63,23.506,61.725,22.23,60.165,22.23z M41.766,5.873c2.07-0.306,4.907,1.283,5.176,3.171c0.386,2.723-3.349,5.192-5.008,6.343 c-2.484,1.723-4.853,2.611-7.178,4.006C35.628,15.748,37.268,6.539,41.766,5.873z M19.232,15.721 c-2.19-1.467-6.444-4.378-6.342-7.678c0.11-3.552,5.655-6.491,8.68-3.839c3.797,3.331,5.625,10.972,7.01,16.357 C25.381,19.042,22.35,17.808,19.232,15.721z M25.114,72.147H6.042V39.084h19.072V72.147z M25.114,36.084H3V25.23h22.114V36.084z  M35.115,72.146h-7.063V25.23h7.063V72.146z M57.125,72.147H38.053V39.084h19.072V72.147z M60,36.084H38.053V25.23H60V36.084z"/>
</symbol><symbol id="icon-house">
  <g fill="#81B3D2">
    <path d="M29.5 65.34h16V41.41h-16v23.94zm13.07-2.93H32.44V44.35h10.13V62.4z"/>
    <path d="M72.62 39.44l2.08-2.08-9.91-9.91V.47H50.97v13.16L37.35 0 0 37.36l2.08 2.08 7.83-7.83v37.8H5.97v2.94h63.88V69.4h-5.06V31.6l7.83 7.83zM53.92 3.41h7.93v21.1l-7.94-7.94V3.41zm7.93 66h-49V28.67l24.5-24.5 24.5 24.5v40.74z"/>
    <path d="M29.75 27.21a7.75 7.75 0 1015.5 0 7.75 7.75 0 00-15.5 0zm7.75-4.97a4.97 4.97 0 110 9.94 4.97 4.97 0 010-9.94zM16.91 41.41h3v3.94h-3zM22.85 41.41h3v3.94h-3zM16.91 47.41h3v3.94h-3zM22.85 47.41h3v3.94h-3zM48.85 41.41h3v3.94h-3zM54.78 41.41h3v3.94h-3zM48.85 47.41h3v3.94h-3zM54.78 47.41h3v3.94h-3z"/>
  </g>
</symbol><symbol id="icon-houseor" viewBox="0 0 74.695 72.346">
  <g>
    <path fill="#81B3D2" d="M29.503,65.345h16V41.407h-16V65.345z M42.566,62.407H32.441V44.345h10.125V62.407z"/>
    <path fill="#81B3D2" d="M72.62,39.44l2.075-2.078l-9.907-9.913V0.47H50.974v13.161L37.349,0L0,37.363l2.077,2.078l7.832-7.832v37.799H5.971v2.938 h63.875v-2.938h-5.059v-37.8L72.62,39.44z M53.913,3.408h7.938v21.104l-7.938-7.94V3.408z M61.85,69.407H12.846V28.671 L37.348,4.169L61.85,28.671V69.407z"/>
    <path fill="#81B3D2" d="M29.753,27.21c0,4.28,3.47,7.75,7.75,7.75s7.75-3.47,7.75-7.75c0-4.279-3.47-7.75-7.75-7.75S29.753,22.93,29.753,27.21z M37.503,22.241c2.745,0,4.97,2.225,4.97,4.97s-2.225,4.971-4.97,4.971s-4.97-2.226-4.97-4.971S34.759,22.241,37.503,22.241z"/>
    <rect fill="#81B3D2" x="16.909" y="41.407" width="3" height="3.938"/>
    <rect fill="#81B3D2" x="22.846" y="41.407" width="3" height="3.938"/>
    <rect fill="#81B3D2" x="16.909" y="47.407" width="3" height="3.938"/>
    <rect fill="#81B3D2" x="22.846" y="47.407" width="3" height="3.938"/>
    <rect fill="#81B3D2" x="48.846" y="41.407" width="3" height="3.938"/>
    <rect fill="#81B3D2" x="54.784" y="41.407" width="3" height="3.938"/>
    <rect fill="#81B3D2" x="48.846" y="47.407" width="3" height="3.938"/>
    <rect fill="#81B3D2" x="54.784" y="47.407" width="3" height="3.938"/>
  </g>
</symbol><symbol id="icon-like or" viewBox="0 0 22 20">
  <g id="Page-1">
    <g id="Core" transform="translate(-295.000000, -464.000000)">
      <g id="thumb-up" transform="translate(295.000000, 464.000000)">
        <path id="Shape" fill="#ffffff" d="M12.383,3.646l-0.637,2.929L11.219,9H13.7h6.2v2c0,0.018,0,0.037,0.001,0.058L17,18H8V8.029 l0.014-0.015L12.383,3.646 M2,10v8V10 M13.2,0L6.6,6.6C6.2,6.9,6,7.4,6,8v10c0,1.1,0.9,2,2,2h9c0.8,0,1.5-0.5,1.8-1.2l3-7.1 C21.9,11.5,21.9,11.2,21.9,11V9H22c0-1.1-0.9-2-2-2h-6.3l1-4.6V2.1c0-0.4-0.2-0.8-0.4-1.1L13.2,0L13.2,0z M4,8H0v12h4V8L4,8z M22,9c0,0.033,0,0.044,0,0.044V9L22,9z"/>
      </g>
    </g>
  </g>
</symbol><symbol id="icon-like-desktop">
  <path fill="#fff" d="M12.38 3.65l-.63 2.92L11.22 9h8.68v2.06L17 18H8V8.03L8.01 8l4.37-4.36M2 10v8-8M13.2 0L6.6 6.6c-.4.3-.6.8-.6 1.4v10c0 1.1.9 2 2 2h9c.8 0 1.5-.5 1.8-1.2l3-7.1c.1-.2.1-.5.1-.7V9h.1a2 2 0 00-2-2h-6.3l1-4.6v-.3c0-.4-.2-.8-.4-1.1l-1.1-1zM4 8H0v12h4V8zm18 1v.04V9z"/>
</symbol><symbol id="icon-like">
  <path opacity=".3" d="M12.38 3.65l-.63 2.92L11.22 9h8.68v2.06L17 18H8V8.03L8.01 8l4.37-4.36M2 10v8-8M13.2 0L6.6 6.6c-.4.3-.6.8-.6 1.4v10c0 1.1.9 2 2 2h9c.8 0 1.5-.5 1.8-1.2l3-7.1c.1-.2.1-.5.1-.7V9h.1a2 2 0 00-2-2h-6.3l1-4.6v-.3c0-.4-.2-.8-.4-1.1l-1.1-1zM4 8H0v12h4V8zm18 1v.04V9z"/>
</symbol><symbol id="icon-mail" viewBox="0 0 16 16">
  <path d="M8,10c-0.266,0-0.5-0.094-1-0.336L0,6v7c0,0.55,0.45,1,1,1h14c0.55,0,1-0.45,1-1V6L9,9.664C8.5,9.906,8.266,10,8,10z M15,2 H1C0.45,2,0,2.45,0,3v0.758l8,4.205l8-4.205V3C16,2.45,15.55,2,15,2z"/>
</symbol><symbol id="icon-map-marker" viewBox="0 0 27 27">
  <circle fill="#FFFFFF" cx="13.5" cy="13.5" r="13.5"/>
  <circle fill="#81B3D3" cx="13.5" cy="13.5" r="8.361"/>
</symbol><symbol id="icon-menu" viewBox="0 0 22.928 21.982">
  <g>
    <rect width="22.928" height="3.964"/>
    <rect y="9.009" width="22.928" height="3.964"/>
    <rect y="18.018" width="22.928" height="3.964"/>
  </g>
</symbol><symbol id="icon-phone" viewBox="0 0 18 18">
  <g id="Page-1">
    <g id="Icons-Communication" transform="translate(-85.000000, -126.000000)">
      <g id="phone" transform="translate(85.000000, 126.000000)">
        <path id="Shape" fill="#010101" d="M3.6,7.8C5,10.6,7.4,12.9,10.2,14.4l2.2-2.2c0.3-0.3,0.699-0.4,1-0.2c1.1,0.4,2.3,0.6,3.6,0.6 c0.6,0,1,0.4,1,1V17c0,0.6-0.4,1-1,1C7.6,18,0,10.4,0,1c0-0.6,0.4-1,1-1h3.5c0.6,0,1,0.4,1,1c0,1.2,0.2,2.4,0.6,3.6 c0.1,0.3,0,0.7-0.2,1L3.6,7.8L3.6,7.8z"/>
      </g>
    </g>
  </g>
</symbol><symbol id="icon-tick" viewBox="0 0 23.049 16.249">
  <path d="M22.801,1.299L21.75,0.248c-0.331-0.331-0.872-0.331-1.203,0L8.693,12.102L2.502,5.911c-0.331-0.331-0.872-0.331-1.203,0 L0.248,6.962c-0.331,0.331-0.331,0.872,0,1.202l7.837,7.837c0.167,0.167,0.388,0.248,0.608,0.246c0.22,0.002,0.44-0.079,0.608-0.246 l13.5-13.5C23.132,2.171,23.132,1.63,22.801,1.299z"/>
</symbol><symbol id="icon-twitter">
  <path fill-rule="evenodd" clip-rule="evenodd" d="M11.283.153c1.736-.484 3.074.264 3.685 1.15.694-.225 1.372-.47 2.072-.69-.004.841-.538 1.478-.883 1.728.704.165 1.343-.481 1.343-.481-.175.977-1.035 1.746-1.611 1.977-.239 6.592-3.272 10.956-10.382 10.823h-.46c-.422 0-4.29-.45-5.047-1.843 2.341.192 4.011-.412 4.835-1.15-.989-.293-2.761-.464-3.07-2.881.362.105.583.223 1.228.117C1.757 8.067.385 7.366.461 5.218c.294.319 1.1.523 1.381.461C1.117 5.444-.188 2.398.921.843 2.794 2.655 4.769 4.364 8.29 4.528c.216-2.24 1.171-3.74 2.993-4.375z"/>
</symbol><symbol id="icon-twitteror" viewBox="0 0 17.5 14.663">
  <g id="W6EeEF_1_">
    <g>
      <path fill-rule="evenodd" clip-rule="evenodd" d="M11.283,0.153c1.736-0.484,3.074,0.264,3.685,1.15 c0.694-0.225,1.372-0.47,2.072-0.69c-0.004,0.841-0.538,1.478-0.883,1.728C16.861,2.506,17.5,1.86,17.5,1.86 c-0.175,0.977-1.035,1.746-1.611,1.977C15.65,10.429,12.617,14.793,5.507,14.66c-0.538,0,0.077,0-0.46,0 c-0.422,0-4.29-0.45-5.047-1.843c2.341,0.192,4.011-0.412,4.835-1.15c-0.989-0.293-2.761-0.464-3.07-2.881 c0.362,0.105,0.583,0.223,1.228,0.117C1.757,8.067,0.385,7.366,0.461,5.218c0.294,0.319,1.1,0.523,1.381,0.461 c-0.725-0.235-2.03-3.281-0.921-4.836C2.794,2.655,4.769,4.364,8.29,4.528C8.506,2.288,9.461,0.788,11.283,0.153z"/>
    </g>
  </g>
</symbol><symbol id="icon-video-fullscreen or" viewBox="0 0 20 20">
  <g>
    <polygon fill="#454545" points="0,0 0,3 0,6 3,6 3,3 6,3 6,0 3,0"/>
    <polygon fill="#454545" points="3,14 0,14 0,17 0,20 3,20 6,20 6,17 3,17"/>
    <polygon fill="#454545" points="17,0 14,0 14,3 17,3 17,6 20,6 20,3 20,0"/>
    <polygon fill="#454545" points="17,17 14,17 14,20 17,20 20,20 20,17 20,14 17,14"/>
  </g>
</symbol><symbol id="icon-video-fullscreen">
  <g>
    <path d="M0 0v6h3V3h3V0H3zM3 14H0v6h6v-3H3zM17 0h-3v3h3v3h3V0zM17 17h-3v3h6v-6h-3z"/>
  </g>
</symbol><symbol id="icon-video-replay">
  <path d="M8 4V0L3 5l5 5V6a6 6 0 11-6 6H0a8 8 0 108-8z"/>
</symbol><symbol id="icon-video-replayor" viewBox="0 0 16 20">
  <path d="M8,4V0L3,5l5,5V6c3.315,0,6,2.686,6,6s-2.685,6-6,6s-6-2.686-6-6H0c0,4.42,3.58,8,8,8s8-3.58,8-8S12.42,4,8,4z"/>
</symbol><symbol id="icon-video-subtitles">
  <path d="M29 0H3a3 3 0 00-3 3v14a3 3 0 003 3h26a3 3 0 003-3V3a3 3 0 00-3-3zM14.4 15.85c-.54.11-1.1.17-1.67.17-.7 0-1.36-.1-1.98-.32-.62-.22-1.17-.57-1.65-1.05s-.85-1.1-1.13-1.86A8.15 8.15 0 017.55 10c0-1.13.16-2.08.47-2.85a5.2 5.2 0 011.23-1.86c.5-.46 1.06-.8 1.68-1 .61-.2 1.23-.31 1.85-.31.66 0 1.22.04 1.68.13.45.1.83.2 1.13.32l-.45 1.92c-.25-.12-.56-.21-.9-.27A8.24 8.24 0 0012.97 6c-.91 0-1.65.33-2.2.98-.56.65-.84 1.66-.84 3.03 0 .6.07 1.14.2 1.63.13.5.33.91.6 1.26.27.35.61.62 1.01.81.4.2.87.3 1.4.3.5 0 .91-.06 1.26-.16.34-.1.63-.22.89-.38l.46 1.84c-.35.25-.8.43-1.35.54zm8.7 0c-.54.11-1.1.17-1.68.17-.7 0-1.35-.1-1.97-.32-.63-.22-1.18-.57-1.65-1.05s-.85-1.1-1.13-1.86a8.13 8.13 0 01-.42-2.79c0-1.13.15-2.08.47-2.85a5.2 5.2 0 011.22-1.86c.5-.46 1.06-.8 1.68-1 .62-.2 1.23-.31 1.85-.31.66 0 1.22.04 1.68.13.46.1.84.2 1.13.32l-.44 1.91c-.26-.12-.56-.2-.9-.26A8.57 8.57 0 0021.67 6c-.92 0-1.65.33-2.2.98-.56.65-.84 1.66-.84 3.03 0 .6.07 1.14.2 1.63.13.5.33.91.6 1.26.27.35.6.62 1 .81.41.2.88.3 1.4.3.5 0 .92-.06 1.26-.16.34-.1.64-.22.9-.38l.46 1.84c-.35.25-.8.43-1.35.54z"/>
</symbol><symbol id="icon-video-subtitlesor" viewBox="0 0 32 20">
  <path fill="#454545" d="M29,0H3C1.35,0,0,1.35,0,3v14c0,1.65,1.35,3,3,3h26c1.65,0,3-1.35,3-3V3C32,1.35,30.65,0,29,0z M14.403,15.854c-0.545,0.108-1.104,0.164-1.678,0.164c-0.694,0-1.354-0.107-1.976-0.323c-0.623-0.214-1.172-0.562-1.646-1.041 s-0.852-1.103-1.133-1.868C7.69,12.02,7.551,11.091,7.551,10c0-1.134,0.157-2.085,0.471-2.851c0.315-0.768,0.723-1.384,1.224-1.854  c0.502-0.468,1.062-0.804,1.679-1.008c0.616-0.204,1.233-0.307,1.852-0.307c0.66,0,1.22,0.045,1.678,0.134  c0.457,0.087,0.835,0.192,1.133,0.313L15.14,6.347c-0.254-0.121-0.555-0.209-0.902-0.265C13.891,6.027,13.47,6,12.973,6 c-0.915,0-1.649,0.325-2.206,0.977c-0.558,0.651-0.836,1.663-0.836,3.031c0,0.598,0.067,1.142,0.199,1.632  c0.132,0.493,0.334,0.913,0.603,1.26c0.271,0.349,0.607,0.619,1.01,0.812c0.402,0.193,0.867,0.29,1.396,0.29  c0.496,0,0.915-0.049,1.257-0.148c0.342-0.099,0.639-0.227,0.893-0.38l0.463,1.841C15.398,15.564,14.949,15.745,14.403,15.854z   M23.101,15.854c-0.545,0.108-1.105,0.164-1.678,0.164c-0.694,0-1.354-0.107-1.976-0.323c-0.623-0.214-1.172-0.562-1.646-1.041  s-0.852-1.103-1.133-1.868c-0.281-0.767-0.421-1.695-0.421-2.786c0-1.134,0.157-2.085,0.471-2.851  c0.314-0.768,0.723-1.384,1.223-1.854c0.502-0.468,1.062-0.804,1.68-1.008c0.616-0.204,1.233-0.307,1.851-0.307 c0.661,0,1.221,0.045,1.678,0.134c0.458,0.087,0.836,0.192,1.133,0.313l-0.446,1.918c-0.253-0.121-0.554-0.209-0.901-0.265  C22.588,6.027,22.166,6,21.67,6c-0.915,0-1.649,0.325-2.206,0.977c-0.558,0.651-0.836,1.663-0.836,3.031  c0,0.598,0.067,1.142,0.199,1.632c0.132,0.493,0.334,0.913,0.603,1.26c0.271,0.349,0.606,0.619,1.009,0.812 c0.402,0.193,0.868,0.29,1.396,0.29c0.497,0,0.915-0.049,1.257-0.148c0.342-0.099,0.64-0.227,0.894-0.38l0.463,1.841  C24.096,15.564,23.646,15.745,23.101,15.854z"/>
</symbol><symbol id="icon-youtube">
  <path d="M17.145 0H2.835A2.842 2.842 0 000 2.835v8.345a2.842 2.842 0 002.835 2.835h14.31a2.842 2.842 0 002.835-2.835V2.835A2.844 2.844 0 0017.145 0zM7.036 10.392V3.623l6.769 3.384-6.769 3.385z"/>
</symbol><symbol id="icon-youtubeor" viewBox="0 0 19.979 14.015">
  <path d="M17.145,0H2.835C1.275,0,0,1.275,0,2.835v8.345c0,1.56,1.275,2.835,2.835,2.835h14.31c1.56,0,2.835-1.275,2.835-2.835V2.835 C19.979,1.275,18.704,0,17.145,0z M7.036,10.392V3.623l6.769,3.384L7.036,10.392z"/>
</symbol></svg>
