<svg xmlns="http://www.w3.org/2000/svg" width="459.75" height="350.07">
  <g fill="#766458">
    <path d="M165.42 70l-.2.23a6.45 6.45 0 01-4.52 2.22l2.82-4.87c1.81-3.14.14-6.1-2.68-6.1-2.3 0-4.09.92-5.81 3.91l-1.47 2.57-1.23 2.1-.15.17c-2.16 2.5-4.26 4.5-5.59 4.5-.66 0-1.04-.47-.34-1.65l6.42-11.2h2.44l.87-1.44h-2.48l2.82-4.9h-3l-2.81 4.9h-2.71l-.87 1.44h2.74l-6.02 10.43c-1.27 2.21-.37 4.26 2.05 4.26 1.73 0 3.66-1.31 5.5-3.09 0 3.82 5.3 4.57 8.55.47h.66c1.78 0 4.6-1.1 6.13-2.91-.2-.4-.72-.87-1.12-1.04zm-6.39.2h-.14c-.98 0-1.76.81-1.76 1.79 0 .37.11.72.29 1l-.03.06c-1.41 2.42-4.84 1.96-3.05-1.15l2.27-3.94 1.44-2.45c2.1-3.57 4.98-2.16 3.17.95l-2.19 3.74zM206.88 70l-.2.23c-2.16 2.5-4.93 4.5-7.03 4.5-1.84 0-2.94-1.16-1.55-3.58l.28-.52c1.93.8 5.56.43 7.8-3.45l.44-.75c1.61-2.77.06-4.84-2.4-4.84-2.41 0-4.34 1.27-5.6 3.46l-2.91 4.98-.18.2c-2.15 2.5-4.26 4.49-5.58 4.49-.66 0-1.04-.46-.35-1.64l4.32-7.57c1.3-2.28.06-3.92-1.61-3.92-1.3 0-2.68.72-4.18 2.27l4.78-8.32h-2.99l-8.35 14.5-.17.19c-2.16 2.5-4.26 4.49-5.59 4.49-.66 0-1.04-.46-.34-1.64l6.42-11.2h2.44l.87-1.44h-2.48l2.82-4.9h-2.99l-2.82 4.9h-2.7l-.87 1.44h2.73l-6.02 10.42c-1.26 2.22-.37 4.26 2.05 4.26 1.21 0 2.52-.64 3.82-1.62l-.77 1.33h3.02l4.55-7.91c4.6-5.79 6.65-5.04 5.35-2.82l-3.88 6.76c-1.27 2.22-.38 4.27 2.04 4.27 1.78 0 3.76-1.38 5.65-3.22.14 1.86 1.65 3.22 4.05 3.22 3.4 0 6.77-2.65 9.24-5.53-.2-.4-.7-.87-1.11-1.04zm-5.7-4.2c1.72-2.97 4.78-2.48 3 .63l-.44.75c-1.44 2.45-3.37 2.4-4.5 1.99l1.94-3.37zM316.05 70l-.2.23a18.78 18.78 0 01-3.6 3.25c.95-2.85.74-7.22 2.59-11.05l-2.25-1.21c-1.24 1.7-3.94 5.61-6.65 8.78l-.2.23c-2.16 2.5-4.26 4.5-5.59 4.5-.66 0-1.03-.47-.34-1.65l6.4-11.2h-3l-5.33 9.3c-2.27 2.07-4.03 3.22-4.6 2.96-.75-.31 0-1.43.37-2.07l5.84-10.19h-2.99L291.8 70l-.2.23a6.45 6.45 0 01-4.51 2.22l2.82-4.87c1.81-3.14.14-6.1-2.68-6.1-2.3 0-4.09.92-5.82 3.92l-1.46 2.56-1.23 2.1-.15.17c-2.16 2.5-4.93 4.5-7.03 4.5-1.84 0-2.94-1.16-1.55-3.58l.28-.52c1.93.81 5.56.44 7.8-3.45l.44-.75c1.61-2.76.06-4.84-2.4-4.84-2.41 0-4.34 1.27-5.6 3.46l-2.91 4.98-.17.2c-2.48 2.85-4.61 4.7-6.97 5.7l6.7-11.46h-1.75c0-1.24-1.27-2.88-3.14-2.88-1.61 0-3.86 1.27-5.13 3.46L254.27 70l-.2.23c-2.16 2.5-4.27 4.49-5.6 4.49-.65 0-1.03-.46-.34-1.64l3-5.24c1.03-1.82.54-2.88-.44-4.06l-1.67-2.02c-.43-.55-.43-1.15.18-1.73l-1.56-1.7c-1.7 1.53-1.84 3.23-.77 4.61l.26.35c-1.33 1.87-3.11 4.4-5.07 6.7V70l-.2.23a6.46 6.46 0 01-4.52 2.22l2.82-4.87c1.81-3.14.14-6.1-2.68-6.1-2.3 0-4.09.92-5.81 3.91l-1.47 2.56-1.23 2.1-.15.18c-2.48 2.85-4.61 4.7-6.97 5.7l6.7-11.46h-1.75c0-1.24-1.27-2.88-3.14-2.88-1.61 0-3.86 1.27-5.12 3.46l-4.2 7.25c-1.27 2.22-.38 4.26 2.04 4.26a5.7 5.7 0 002.85-1l-.84 1.4c-4.03 1.24-6.56 2.89-6.56 5.13 0 2.88 4.4 3.48 6.56-.2l2.28-3.94c2.4-.75 4.74-2.16 7.18-4.49-.02 3.84 5.3 4.59 8.54.48h.66c1.78 0 4.6-1.1 6.13-2.9a99.93 99.93 0 004.95-6.42l.4.49c.38.48.52 1.09.18 1.7l-3.17 5.5c-1.27 2.21-.37 4.26 2.05 4.26 1.51 0 3.17-1 4.8-2.43-.05 1.39.88 2.43 2.6 2.43a5.7 5.7 0 002.85-1.01l-.84 1.4c-4.03 1.24-6.56 2.89-6.56 5.13 0 2.88 4.4 3.48 6.56-.2l2.27-3.94c2.44-.77 4.83-2.22 7.32-4.62.13 1.87 1.65 3.23 4.06 3.23 2.43 0 4.86-1.36 6.94-3.2-.11 3.92 5.27 4.73 8.54.58h.67c.93 0 2.15-.3 3.33-.85-.81 2.08-.07 3.48 1.64 3.48 1.65 0 3.49-1.5 4.93-2.88-.29 1.6.66 2.88 2.56 2.88 2.48 0 5.33-2.65 7.8-5.53 1.7-1.96 3.2-4.06 4.26-5.47-1.18 3.1-.54 8.7-3.4 8.7-1 0-1.4-1.1-1.4-1.1l-1.87.98s.54 2.42 3.28 2.42c.28 0 .54-.03.83-.06l.09-.03c3.05-.4 6.07-2.82 8.32-5.44-.17-.46-.7-.92-1.12-1.04zm-42.99-4.2c1.73-2.97 4.78-2.48 3 .63l-.43.75c-1.44 2.45-3.37 2.4-4.5 1.99l1.93-3.37zM215.9 81.4c-.64 1.13-1.64.95-1.64.15 0-.78.72-1.67 2.99-2.56l-1.35 2.41zm1.38-6.68c-.66 0-1.04-.46-.35-1.64l4.18-7.28c1.61-2.8 4.8-2.08 3.34.63l-2.27 3.97c-1.82 2.91-3.63 4.32-4.9 4.32zm18.4-4.52h-.15c-.98 0-1.75.81-1.75 1.79 0 .37.11.72.28 1l-.03.06c-1.4 2.42-4.83 1.96-3.05-1.15l2.28-3.94 1.44-2.45c2.1-3.57 4.98-2.16 3.16.95l-2.18 3.74zm18.82 11.2c-.63 1.13-1.64.95-1.64.15 0-.78.72-1.67 3-2.56l-1.36 2.41zm1.38-6.68c-.66 0-1.03-.46-.34-1.64l4.17-7.28c1.62-2.8 4.81-2.08 3.34.63l-2.27 3.97c-1.81 2.91-3.63 4.32-4.9 4.32zm29.55-4.52h-.15c-.98 0-1.76.81-1.76 1.79 0 .37.12.72.3 1l-.04.06c-1.4 2.42-4.83 1.96-3.05-1.15l2.27-3.94 1.44-2.45c2.1-3.57 4.98-2.16 3.17.95l-2.19 3.74z"/>
  </g>
  <path fill="#766458" d="M101.42 66.82h28.92v1.96h-28.92zM328.42 66.82h28.92v1.96h-28.92z"/>
  <g fill="#81B3D3">
    <path d="M163.18 0h7.71l-1.2 44.92h-14.53l-1.98-18.55-1.97 18.55h-14.6L135.48 0h7.65l.63 37.15h.83L149.36 0h7.58l4.9 37.15h.77L163.18 0zM195.03 37.15v7.77h-20.9V0h20.9v7.7h-13.25v10.84h10.58v7.7h-10.58v10.91h13.25zM216.37 37.15v7.77H198.1V0h7.65v37.15h10.63zM232.62 28.36l7.7-1.8v13.6a4.8 4.8 0 01-4.7 4.76h-11.48a4.76 4.76 0 01-4.71-4.75V4.75c0-2.63 2.1-4.75 4.71-4.75h11.47a4.76 4.76 0 014.71 4.75v9.11l-7.7 1.8V7.7h-5.55v29.45h5.55v-8.79zM261.09 0a4.76 4.76 0 014.71 4.75v35.42a4.8 4.8 0 01-4.71 4.75h-11.47a4.76 4.76 0 01-4.71-4.75V4.75c0-2.63 2.1-4.75 4.71-4.75h11.47zm-3 7.7h-5.54v29.45h5.55V7.7zM290.84 0h7.58v44.92h-7.65V22.84l-3.06 11.43h-7.45l-3-11.43v22.08h-7.64V0h7.58l6.82 21.69L290.84 0zM323.13 37.15v7.77h-20.9V0h20.9v7.7h-13.25v10.84h10.58v7.7h-10.58v10.91h13.25z"/>
  </g>
  <g fill="#FFF">
    <path d="M44.47 157.61c-3.58-2.98-8.14-4.96-12.9-4.96-3.58 0-8.34 2.08-8.34 6.25 0 4.37 5.26 6.06 8.63 7.15l4.97 1.49c10.42 3.07 18.46 8.33 18.46 20.44 0 7.45-1.79 15.09-7.74 20.15-5.86 4.97-13.7 7.05-21.24 7.05A46.18 46.18 0 010 206.64l8.33-15.68c4.86 4.27 10.62 7.74 17.27 7.74 4.57 0 9.43-2.28 9.43-7.54 0-5.46-7.64-7.35-11.81-8.54-12.21-3.47-20.25-6.65-20.25-21.14 0-15.19 10.82-25.11 25.8-25.11a51.2 51.2 0 0123.43 6.15l-7.74 15.09zM91.83 154.83v12.5h21.94v16.49H91.83v12.9h23.13v16.47H72.38v-74.84h42.58v16.48H91.83zM129.42 138.35h27.6c20.84 0 38 16.38 38 37.42 0 21.04-17.26 37.42-38 37.42h-27.6v-74.84zm19.45 58.37h4.37c11.61 0 21.54-6.35 21.54-20.95 0-13.4-8.84-20.94-21.34-20.94h-4.57v41.89zM286.87 174.38c0 24.22-17.37 41.3-41.39 41.3s-41.39-17.08-41.39-41.3c0-22.63 19.85-38.5 41.4-38.5s41.38 15.87 41.38 38.5zm-62.53.1c0 12.9 9.53 22.34 21.14 22.34 11.61 0 21.14-9.43 21.14-22.34 0-10.32-9.52-19.75-21.14-19.75-11.61 0-21.14 9.43-21.14 19.75zM297.24 138.35h19.45l35.64 45.76h.2v-45.76h19.45v74.84h-19.45l-35.64-45.85h-.2v45.85h-19.45v-74.84zM407.35 200.2l-5.16 13h-20.65l28.79-74.85h21.24l28.19 74.84H439l-4.86-13h-26.8zm13.6-38.72h-.2l-8.04 23.82h16.18l-7.94-23.82z"/>
  </g>
  <g fill="#FFF">
    <path d="M108.08 287.74c7.66-2.59 8.24-12.18.7-12.18-2.09 0-4.57 1.46-6.28 4.45L92.3 297.66c-.47.84-.95 1.53-1.46 2.15-2.62-3.6-1.86-9 1.83-11.38l-1.54-1.93c-7.95 5.07-5.61 19.7 7.66 19.7 11.34 0 16.6-13.6 9.3-18.46zm-9.37 15.54c-2.26 0-4.05-.51-5.47-1.32.66-.76 1.31-1.71 1.9-2.7l6.38-11.05 1.02.11c8.9 1.87 5.36 14.96-3.83 14.96zm4.08-17.29l3.07-5.25c2.77-4.78 6.3-1.97 4.4 1.6-1.45 2.74-3.6 3.58-7.47 3.65z"/>
    <path d="M140.16 300c-.63 2.25.57 4.08 3.15 4.08 1.53 0 3.42-.99 5.25-2.48.18 1.46 1.35 2.48 3.28 2.48 2.02 0 4.23-1.4 6.4-3.36-.43 2.05.53 3.36 2.4 3.36 2.08 0 4.42-1.9 6.24-3.65-.37 2.04.84 3.65 3.24 3.65 3.14 0 6.75-3.36 9.89-7l-.1-.15c2.1-2.44 3.94-5.03 5.27-6.78-1.5 3.94-.7 11.01-4.3 11.01-1.28 0-1.8-1.38-1.8-1.38l-2.37 1.24s.7 3.06 4.16 3.06c.36 0 .7-.04 1.06-.07.03 0 .07-.04.1-.04 2.8-.37 5.56-2.06 7.95-4.22.06 2.49 2 4.33 5.14 4.33 4.3 0 8.57-3.36 11.71-7a3.29 3.29 0 00-1.42-1.32l-.26.3c-2.73 3.17-6.23 5.68-8.9 5.68-2.33 0-3.71-1.46-1.96-4.52l.36-.65c2.45 1.02 7.04.54 9.89-4.38l.54-.95c2.05-3.5.08-6.12-3.02-6.12-3.07 0-5.51 1.6-7.11 4.37l-3.69 6.32-.1-.05-.26.3a23.68 23.68 0 01-4.56 4.12c1.2-3.61.95-9.16 3.29-14l-2.85-1.54c-1.57 2.15-5 7.11-8.42 11.12l.1.14-.13.15c-2.73 3.18-5.4 5.7-7.07 5.7-.84 0-1.31-.59-.44-2.09l8.1-14.18h-3.8l-6.74 11.78c-2.89 2.62-5.1 4.08-5.84 3.75-.95-.4 0-1.82.48-2.62l7.4-12.91h-3.8l-6.03 10.44-.29-.16-.26.3c-2.73 3.16-5.4 5.68-7.07 5.68-.84 0-1.31-.58-.44-2.08l6.13-10.72h-2.15c.14-1.6-1.5-3.83-3.98-3.83-2.04 0-4.88 1.6-6.49 4.38l-3.84 6.63c-.2-.15-.4-.28-.58-.36l-.26.3c-2.73 3.16-6.23 5.68-8.9 5.68-2.33 0-3.71-1.46-1.96-4.52l3.9-6.79c2.19-3.75 6.05-3.13 3.79.8l-.55.95h3.1l.55-.94c2.04-3.5.07-6.13-3.03-6.13-3.06 0-5.5 1.6-7.1 4.38l-3.78 6.46a2.41 2.41 0 00-.35-.2l-.25.3c-2.74 3.17-6.24 5.69-8.9 5.69-2.33 0-3.72-1.46-1.97-4.52l.37-.66c2.44 1.02 7.04.55 9.88-4.38l.55-.94c2.04-3.5.07-6.13-3.03-6.13-3.06 0-5.5 1.6-7.11 4.38l-3.98 6.81c-2.37 4.05-.32 7.77 4.16 7.77 3.34 0 6.66-2.02 9.44-4.63-.1 2.64 1.87 4.63 5.14 4.63 3.1 0 6.18-1.73 8.83-4.07zm58.03-9.56c2.19-3.76 6.05-3.14 3.8.8l-.56.95c-1.82 3.1-4.26 3.03-5.68 2.52l2.44-4.27zm-54.2 9.23l5.3-9.23c2.04-3.54 6.09-2.63 4.23.8l-2.96 5.18c-2.3 3.61-4.56 5.32-6.12 5.32-.84 0-1.32-.58-.44-2.07zm-24.18-9.23c2.2-3.76 6.06-3.14 3.8.8l-.55.95c-1.82 3.1-4.27 3.03-5.69 2.52l2.44-4.27zM248.4 304.08c4.3 0 8.57-3.36 11.7-7a3.27 3.27 0 00-1.42-1.32l-.25.3c-2.74 3.17-6.24 5.68-8.9 5.68-2.33 0-3.72-1.46-1.97-4.52l.36-.65c2.45 1.02 7.04.54 9.89-4.38l.54-.95c2.05-3.5.08-6.13-3.02-6.13-3.06 0-5.5 1.61-7.11 4.38l-3.7 6.34-.1-.07-.27.3c-2.73 3.17-5.4 5.68-7.07 5.68-.84 0-1.31-.58-.44-2.08l5.47-9.59c1.64-2.88.08-4.96-2.04-4.96-1.64 0-3.4.92-5.29 2.88l6.06-10.54h-3.8l-10.7 18.56c-.14-.1-.29-.19-.43-.25l-.25.3c-2.74 3.17-5.4 5.68-7.08 5.68-.84 0-1.31-.58-.44-2.08l8.14-14.18h3.1l1.1-1.83h-3.14l3.57-6.2h-3.8l-3.57 6.2h-3.43l-1.09 1.83h3.46l-7.62 13.2c-1.6 2.81-.47 5.4 2.6 5.4 1.88 0 3.93-1.22 5.95-2.98l-1.5 2.61h3.83l5.76-10.03c5.84-7.33 8.43-6.38 6.78-3.57l-4.92 8.57c-1.6 2.8-.47 5.4 2.59 5.4 2.3 0 4.86-1.82 7.3-4.22.12 2.44 2.04 4.22 5.15 4.22zm3.06-13.64c2.19-3.76 6.06-3.14 3.8.8l-.55.95c-1.83 3.1-4.27 3.03-5.7 2.52l2.45-4.27zM363.42 295.76l-.26.3c-2.73 3.17-5.4 5.68-7.07 5.68-.84 0-1.31-.58-.44-2.07l12.84-22.21h-3.8l-5.58 9.62a4.11 4.11 0 00-3.46-1.97c-2.04 0-4.89 1.61-6.5 4.38l-3.7 6.4-.24-.13-.26.3c-2.73 3.17-5.4 5.68-7.07 5.68-.84 0-1.31-.58-.44-2.08l5.47-9.59c1.64-2.88.08-4.96-2.04-4.96-1.64 0-3.35.88-5.25 2.85l1.42-2.48h-3.8l-6.05 10.49a2.48 2.48 0 00-.36-.2l-.26.29c-2.73 3.17-5.4 5.68-7.07 5.68-.84 0-1.32-.58-.44-2.08l6.12-10.72h-2.15c.15-1.6-1.5-3.83-3.97-3.83-2.05 0-4.9 1.6-6.5 4.38l-3.66 6.33-.2.23c-2.74 3.17-5.4 5.7-7.08 5.7-.84 0-1.31-.6-.44-2.09l3.8-6.64c1.3-2.3.68-3.64-.55-5.14l-2.12-2.55c-.55-.7-.55-1.46.22-2.19l-1.97-2.15c-2.15 1.93-2.33 4.08-.98 5.83l.33.44c-1.68 2.37-3.94 5.58-6.42 8.5l.25.32c-3.12 3.6-5.78 5.92-8.76 7.2l4.81-8.25H286l-.4.66c-2 3.53-4.3 6.05-7.26 6.05-2.59 0-3.06-2.59-.8-6.45l1.06-1.86c.69.1 1.39.18 2.15.18 13.5 0 20.02-18.05 8.13-18.05-2.08 0-4.56 1.46-6.27 4.45l-5.9 10.17a6.1 6.1 0 01-3.4-5.4c0-1.75.8-3.5 2.44-4.77l-1.24-2.23c-2.7 1.94-3.9 4.52-3.9 7.08a8.56 8.56 0 004.78 7.55l-1.13 1.97c-2.66 4.6-2.19 9.7 3.17 9.7 1.6 0 2.96-.48 4.12-1.2l-.98 1.7c-5.14 1.57-8.32 3.65-8.32 6.5 0 3.64 5.58 4.41 8.32-.26l2.92-5c3.93-1.23 7.8-3.93 11.96-8.75a2.24 2.24 0 00-.24-.35c1.69-1.98 3.12-3.89 5.97-7.78l.51.62c.48.62.66 1.39.22 2.16l-4.01 6.96c-1.6 2.8-.47 5.4 2.59 5.4 1.9 0 3.99-1.25 6.03-3.04-.04 1.74 1.15 3.03 3.31 3.03 1.54 0 3.43-.98 5.25-2.47.19 1.45 1.36 2.47 3.29 2.47 1.81 0 3.79-1.12 5.74-2.78l-1.4 2.42h3.83l5.8-10.1c5.8-7.26 8.39-6.31 6.74-3.5l-4.92 8.57c-1.6 2.8-.47 5.4 2.59 5.4 2.02 0 4.23-1.4 6.38-3.35-.2 1.9 1 3.34 3.3 3.34 1.53 0 3.42-.98 5.25-2.48.18 1.46 1.35 2.48 3.28 2.48 3.14 0 6.75-3.35 9.88-7a3.3 3.3 0 00-1.42-1.3zm-77.97-14.15c1.14-1.93 2.38-2.77 3.43-2.77 6.02 0 1.8 12.26-8.13 12.26H280l5.46-9.49zm-8.05 28.6c-.8 1.42-2.08 1.2-2.08.18 0-.99.87-2.12 3.8-3.25l-1.72 3.06zm39.69-13.79c-2.3 3.61-4.56 5.32-6.13 5.32-.84 0-1.31-.58-.44-2.08l5.3-9.22c2.03-3.54 6.08-2.63 4.22.8l-2.95 5.18zm36.7-.22c-2.3 3.76-4.63 5.54-6.24 5.54-.83 0-1.3-.58-.43-2.07l5.28-9.23c2.05-3.54 6.1-2.63 4.23.8h.04l-2.88 4.96zM236.71 331.76l-.25.3c-2.74 3.17-5.4 5.69-7.08 5.69-.84 0-1.3-.59-.43-2.08l5.47-9.6c1.64-2.88.07-4.96-2.05-4.96-1.64 0-3.35.88-5.25 2.85l1.42-2.48h-3.79l-6.1 10.58a2.72 2.72 0 00-.5-.3l-.25.3a8.18 8.18 0 01-5.72 2.8l3.57-6.16c2.3-3.97.18-7.73-3.4-7.73-2.91 0-5.17 1.17-7.36 4.96l-1.86 3.25-1.63 2.78a2.4 2.4 0 00-.34-.2l-.25.3c-3.14 3.6-5.8 5.94-8.8 7.22l10.4-17.8h-3.8l-6.7 11.67c-2.92 2.7-5.18 4.2-5.9 3.87-.96-.4 0-1.82.47-2.63l7.4-12.9h-3.8l-6.04 10.46a2.58 2.58 0 00-.34-.18l-.25.29c-2.74 3.17-5.4 5.69-7.08 5.69-.83 0-1.3-.59-.43-2.08l5.47-9.6c1.64-2.87.07-4.95-2.05-4.95-1.64 0-3.35.87-5.25 2.84l1.43-2.48h-3.8l-6.06 10.49a2.52 2.52 0 00-.36-.2l-.26.29c-2.73 3.17-5.4 5.69-7.07 5.69-.84 0-1.31-.59-.44-2.08l6.13-10.72h-2.15c.14-1.6-1.5-3.83-3.98-3.83-2.04 0-4.89 1.6-6.49 4.37l-3.92 6.77a2.15 2.15 0 00-.83-.5l-.25.3c-2.74 3.17-6.1 5.69-9.85 5.69-2.59 0-4.16-2.6-1.9-6.46l1.06-1.86c.7.11 1.39.19 2.15.19 4.05 0 8.65-2.08 11.64-7.3a10.51 10.51 0 001.53-5.1c0-3.43-2.23-5.65-5.03-5.65-2.08 0-4.56 1.46-6.28 4.45l-5.9 10.17a6.11 6.11 0 01-3.4-5.4c0-1.75.8-3.5 2.45-4.77l-1.24-2.23c-2.7 1.94-3.9 4.52-3.9 7.08a8.57 8.57 0 004.77 7.55l-1.13 1.97c-2.66 4.6-1.1 9.7 4.27 9.7 4.24 0 7.35-1.9 9.97-4.38-.83 2.39.37 4.38 3.06 4.38 1.53 0 3.42-.99 5.25-2.48.18 1.46 1.35 2.48 3.28 2.48 1.81 0 3.79-1.13 5.74-2.79l-1.4 2.42h3.83l5.8-10.1c5.8-7.26 8.39-6.31 6.75-3.5l-4.93 8.57c-1.6 2.8-.47 5.4 2.6 5.4 2.03 0 4.28-1.43 6.46-3.43-.46 2.09.5 3.42 2.4 3.42 1.82 0 3.9-1.53 5.61-3.06l-2.08 3.57c-5.14 1.53-8.35 3.65-8.35 6.5 0 3.64 5.58 4.4 8.31-.26l2.92-5c3.17-1 6.3-2.96 9.56-6.2-.52 5.3 6.54 6.51 10.79 1.13h.84c1.38 0 3.26-.52 4.95-1.45l-2.55 4.4h3.83l5.8-10.1c5.8-7.25 8.39-6.3 6.75-3.5l-4.93 8.58c-1.6 2.8-.47 5.4 2.6 5.4 3.13 0 6.74-3.36 9.88-7.01a3.28 3.28 0 00-1.43-1.32zm-94.38-14.15c1.13-1.93 2.37-2.77 3.42-2.77 1.43 0 2.08.95 2.08 2.34 0 3.53-4.3 9.92-10.2 9.92h-.77l5.47-9.49zm13.35 14.81c-2.3 3.61-4.56 5.32-6.13 5.32-.83 0-1.3-.58-.43-2.08l5.28-9.22c2.05-3.54 6.1-2.63 4.23.8l-2.95 5.18zm28.85 13.78c-.8 1.43-2.08 1.2-2.08.19 0-.99.92-2.12 3.83-3.25l-1.75 3.06zm25.53-14.18h-.18a2.24 2.24 0 00-2.23 2.26c0 .48.15.91.37 1.28l-.04.07c-1.79 3.06-6.13 2.48-3.87-1.46l2.88-5 1.83-3.1c2.66-4.52 6.3-2.73 4.01 1.2l-2.77 4.75zM324.62 333.08a2.4 2.4 0 00-1.42-1.31l-.26.29a23.67 23.67 0 01-4.56 4.12c1.2-3.61.95-9.16 3.28-14l-2.84-1.54c-1.57 2.15-5 7.11-8.43 11.13l.03.02c-.02 0-.04-.02-.05-.03l-.26.3c-2.73 3.17-5.4 5.69-7.07 5.69-.84 0-1.64-.84-1.64-2.56v-1.57c2.66.33 5.47-1.42 7.26-4.52l1.02-1.75c3.53-6.05-2.23-8.06-6.1-4.52l5.4-9.37h-3.8l-10.8 18.77c-.24-.2-.48-.37-.7-.46l-.26.3c-2.73 3.16-6.23 5.68-8.9 5.68-2.33 0-3.71-1.46-1.96-4.52l3.9-6.79c2.18-3.75 6.05-3.13 3.79.8l-.55.96h3.1l.55-.95c2.04-3.5.07-6.13-3.03-6.13-3.06 0-5.5 1.6-7.1 4.38l-3.74 6.4-.23-.13-.26.3c-2.73 3.16-5.4 5.68-7.07 5.68-.84 0-1.32-.58-.44-2.08l8.1-14.19h-3.8l-6.74 11.78c-2.89 2.63-5.1 4.09-5.84 3.76-.95-.4 0-1.82.47-2.63l7.4-12.9h-3.79l-7.36 12.74c-.82.74-1.66 1.41-2.45 1.95 1.2-3.6.95-9.15 3.28-14l-2.84-1.54c-1.57 2.16-10.32 13.75-13.75 17.77.32.47.87.94 1.42 1.3a504.72 504.72 0 0010.72-13.56c-1.5 3.94-.69 11.02-4.3 11.02-1.28 0-1.79-1.39-1.79-1.39l-2.37 1.24s.7 3.06 4.16 3.06c.36 0 .7-.03 1.06-.07.03 0 .07-.04.1-.04a13.17 13.17 0 005.63-2.38c0 1.55.92 2.5 2.51 2.5 2.08 0 4.42-1.9 6.24-3.65-.36 2.04.84 3.64 3.24 3.64 2.36 0 4.98-1.9 7.47-4.38.03 2.52 1.98 4.38 5.15 4.38 3.07 0 6.13-1.72 8.77-4.03l-2.11 3.67h3.83l4.34-7.55v3.02c0 3.25.62 4.9 3.68 4.9 3.14 0 6.75-3.36 9.89-7.01l-.03-.03c.02 0 .04.02.05.03 2.15-2.48 4.05-5.14 5.4-6.93-1.5 3.94-.7 11.02-4.3 11.02-1.28 0-1.8-1.4-1.8-1.4l-2.36 1.25s.69 3.06 4.15 3.06c.37 0 .7-.04 1.06-.07.04 0 .07-.04.11-.04 3.87-.51 7.7-3.57 10.54-6.9zm-25.19-3l1.1-1.89c4.37-6.1 7.36-4.41 6.02-2.12l-1.83 3.14c-1.13 1.97-4.45 3.36-5.29.88zM324.47 335.67c-1.24 0-2.19.98-2.19 2.22s.95 2.19 2.2 2.19a2.21 2.21 0 100-4.41zM324.66 334.17h3.83l11.88-20.71h-3.79z"/>
  </g>
  <path fill="#FFF" d="M80.41 277.58a2.47 2.47 0 01-1.5 2.25c-.33.15-.7.22-1.1.22-.45 0-.89-.08-1.3-.25a2.95 2.95 0 01-1.07-.73 3.1 3.1 0 01-.57-1.05c-.14-.4-.2-.83-.2-1.28a6.01 6.01 0 011.75-4.3c.25-.25.53-.48.85-.7a9.25 9.25 0 011.62-.89c.2-.09.33-.14.37-.17l1.36 2c-.25.09-.53.2-.83.35-.3.15-.6.33-.86.54-.27.22-.5.47-.68.76-.18.3-.28.64-.3 1.02.65 0 1.22.2 1.72.58.5.38.74.93.74 1.65zm7.87 0a2.42 2.42 0 01-.68 1.68 2.59 2.59 0 01-1.93.8c-.45 0-.88-.1-1.3-.26a2.93 2.93 0 01-1.06-.73c-.25-.3-.44-.64-.58-1.05s-.2-.83-.2-1.28a6.03 6.03 0 011.76-4.3c.24-.25.52-.48.84-.7a8.83 8.83 0 011.63-.89l.37-.17 1.35 2c-.25.09-.52.2-.83.35-.3.15-.59.33-.86.54s-.5.47-.67.77c-.19.29-.29.63-.3 1.01.64 0 1.22.2 1.72.58.49.38.74.93.74 1.65zM353.44 336.52a2.47 2.47 0 011.5-2.25c.33-.14.7-.22 1.1-.22.45 0 .89.09 1.3.26.42.17.78.4 1.07.72.25.3.44.65.58 1.05.13.4.2.84.2 1.29a6.02 6.02 0 01-1.76 4.3 8.17 8.17 0 01-2.47 1.59l-.37.16-1.36-2c.25-.08.53-.2.83-.35.3-.14.6-.32.86-.54.27-.21.5-.47.68-.76.18-.3.28-.63.3-1.01-.65 0-1.22-.2-1.72-.58-.5-.38-.74-.94-.74-1.66zm-7.87 0a2.43 2.43 0 01.68-1.67 2.6 2.6 0 011.93-.8c.45 0 .88.09 1.3.26.42.17.77.4 1.06.72.25.3.44.65.58 1.05.14.4.2.84.2 1.29a6.02 6.02 0 01-1.76 4.3 5.7 5.7 0 01-.84.69 9.33 9.33 0 01-1.63.9l-.37.16-1.35-2c.25-.08.52-.2.83-.35.3-.14.59-.32.86-.54.27-.21.5-.47.68-.76.18-.3.28-.63.3-1.01-.65 0-1.23-.2-1.73-.58-.49-.38-.74-.94-.74-1.66z"/>
</svg>
