<svg version="1.0" xmlns="http://www.w3.org/2000/svg" width="459.75" height="79.81">
  <g fill="#FFF">
    <path d="M44.47 21.74c-3.58-2.98-8.14-4.96-12.9-4.96-3.58 0-8.34 2.08-8.34 6.25 0 4.37 5.26 6.05 8.63 7.14l4.97 1.5C47.25 34.73 55.29 40 55.29 52.1c0 7.45-1.79 15.09-7.75 20.15-5.85 4.96-13.7 7.05-21.23 7.05A46.19 46.19 0 010 70.77l8.34-15.68c4.86 4.27 10.62 7.74 17.27 7.74 4.57 0 9.43-2.28 9.43-7.55 0-5.46-7.64-7.34-11.81-8.53C11.02 43.27 2.98 40.1 2.98 25.6 2.98 10.4 13.8.5 28.78.5a51.2 51.2 0 0123.43 6.15l-7.74 15.09zM91.83 18.96v12.5h21.94v16.48H91.83v12.9h23.13v16.48H72.38V2.48h42.58v16.48H91.83zM129.42 2.48h27.6c20.83 0 38 16.38 38 37.42 0 21.04-17.26 37.42-38 37.42h-27.6V2.48zm19.45 58.37h4.37c11.61 0 21.54-6.36 21.54-20.95 0-13.4-8.84-20.94-21.34-20.94h-4.57v41.89zM286.87 38.51c0 24.22-17.37 41.3-41.4 41.3-24.01 0-41.38-17.08-41.38-41.3C204.09 15.88 223.94 0 245.48 0s41.4 15.88 41.4 38.51zm-62.53.1c0 12.9 9.53 22.34 21.14 22.34 11.61 0 21.14-9.44 21.14-22.34 0-10.32-9.52-19.75-21.14-19.75-11.61 0-21.14 9.43-21.14 19.75zM297.24 2.48h19.45l35.64 45.76h.2V2.48h19.45v74.84h-19.46L316.9 31.47h-.2v45.85h-19.45V2.48zM407.35 64.32l-5.16 13h-20.65l28.78-74.84h21.25l28.18 74.84h-20.74l-4.86-13h-26.8zm13.6-38.71h-.2l-8.04 23.82h16.18l-7.94-23.82z"/>
  </g>
</svg>
